<?xml version="1.0" encoding="UTF-8"?>
<svg id="Layer_1" data-name="Layer 1" xmlns="http://www.w3.org/2000/svg" viewBox="0 0 1280 356.5">
  <defs>
    <style>
      .cls-1 {
        fill: #fff;
      }

      .cls-2 {
        letter-spacing: 0em;
      }

      .cls-3 {
        letter-spacing: 0em;
      }

      .cls-4 {
        fill: #f4901e;
        font-family: BoxedRound, 'Boxed Round';
        font-size: 63.33px;
      }

      .cls-5 {
        letter-spacing: -.01em;
      }

      .cls-6 {
        letter-spacing: -.02em;
      }
    </style>
  </defs>
  <g>
    <path class="cls-1" d="M50.24,204.47V50.9h30.3V204.47h-30.3Z"/>
    <path class="cls-1" d="M102.38,88.84c0-17.83,12.33-33.18,29.73-37.04,16.51-3.66,33.43,4.13,41.48,18.8,.4,.72,.77,1.46,1.12,2.21l45.2,96.94c1.53,3.27,5.02,4.99,8.54,4.21,3.52-.78,5.96-3.82,5.96-7.43V50.9h30.34v115.63c0,17.83-12.33,33.18-29.73,37.04-16.51,3.66-33.43-4.13-41.48-18.8-.4-.72-.77-1.46-1.12-2.21l-45.2-96.94c-1.53-3.27-5.02-4.99-8.54-4.21-3.52,.78-5.96,3.82-5.96,7.43v115.63h-30.34V88.84Z"/>
    <path class="cls-1" d="M452.5,81.2h-67.83v123.26h-30.3V81.2h-67.83v-30.3h165.96v30.3Z"/>
    <path class="cls-1" d="M474.29,204.47V81.48c0-16.91,13.8-30.58,30.58-30.58h80.09c14.72,0,28.37,7.06,36.99,18.76,16.97,23.04,8.58,54.26-14.36,67.23-2.45,1.46-6.74,3.06-4.96,6.89l79.36,150.13h-33.47l-80.7-153.02c-3.35-7.17-.67-15.65,6.18-19.6,3.7-2.14,19.78-10.97,22.21-13.52,0,0,.01-.01,.02-.02,.66-.69,1.26-1.43,1.79-2.22,.02-.03,.04-.05,.05-.08,6.74-10.16-.56-24.23-13.1-24.23h-76.22c-2.33,.05-4.15,1.94-4.15,4.21v119.06h-30.3Z"/>
    <path class="cls-1" d="M660.76,204.47l59.34-127.27c7.54-16.17,23.44-26.3,41.28-26.3s33.74,10.13,41.28,26.3l59.34,127.27h-33.47l-53.37-114.45c-2.56-5.48-7.74-8.78-13.79-8.78s-11.23,3.3-13.79,8.78l-53.37,114.45h-33.47Z"/>
    <path class="cls-1" d="M914.01,204.47h-30.3V50.9h30.3v61.63h62.05c.94-3.55,2.2-7.05,3.81-10.49l23.85-51.14h33.47l-29.83,63.96c-3.92,8.41-3.92,17.23,0,25.64l29.83,63.96h-33.47l-23.85-51.14c-1.6-3.44-2.87-6.94-3.81-10.49h-62.05v61.63Z"/>
    <path class="cls-1" d="M1059.14,108.71c0-31.79,26.01-57.81,57.81-57.81h55c31.79,0,57.81,26.02,57.81,57.81v37.95c0,31.79-26.01,57.81-57.81,57.81h-55c-31.79,0-57.81-26.01-57.81-57.81v-37.95Zm140.32,37.95v-37.95c0-15.13-12.38-27.51-27.51-27.51h-55c-15.13,0-27.51,12.38-27.51,27.51v37.95c0,15.13,12.38,27.51,27.51,27.51h55c15.13,0,27.51-12.38,27.51-27.51Z"/>
  </g>
  <text class="cls-4" transform="translate(715.2 292.33)"><tspan x="0" y="0">Mar</tspan><tspan class="cls-5" x="108.8" y="0">k</tspan><tspan x="141.61" y="0">eting </tspan><tspan class="cls-2" x="303.16" y="0">A</tspan><tspan x="344.39" y="0">gen</tspan><tspan class="cls-6" x="450.03" y="0">c</tspan><tspan class="cls-3" x="483.09" y="0">y</tspan></text>
</svg>